<?xml version="1.0" encoding="utf-8"?>
<!-- Svg Vector Icons : http://www.onlinewebfonts.com/icon -->
<!DOCTYPE svg PUBLIC "-//W3C//DTD SVG 1.1//EN" "http://www.w3.org/Graphics/SVG/1.1/DTD/svg11.dtd">
<svg version="1.1" xmlns="http://www.w3.org/2000/svg" xmlns:xlink="http://www.w3.org/1999/xlink" x="0px" y="0px" viewBox="0 0 256 256" enable-background="new 0 0 256 256" xml:space="preserve">
<metadata> Svg Vector Icons : http://www.onlinewebfonts.com/icon </metadata>
<g><g><path fill="#000000" d="M228.9,34.4c-9.5,0-17.1,8-17.1,17.9c0,8.4,5.6,15.4,13.1,17.3L201.6,170l-22.3-77.1c6-0.7,10.6-5.9,10.6-12.2c0-6.8-5.3-12.4-11.9-12.4s-11.9,5.5-11.9,12.4c0,6.4,4.6,11.6,10.6,12.2L154,168.5L129.6,62.9C140,61.9,148.1,53,148.1,42c0-11.7-9.1-21.1-20.3-21.1c-11.2,0-20.2,9.5-20.2,21.1c0,10.5,7.3,19.1,16.9,20.7L98.3,166.5L84.1,92.4c4.7-1.6,8.2-6.2,8.2-11.7c0-6.8-5.3-12.4-11.9-12.4c-6.6,0-11.9,5.5-11.9,12.4c0,5.2,3,9.6,7.3,11.4l-18.6,77.6L29.1,70c8.5-1,15.2-8.5,15.2-17.7c0-9.9-7.7-17.9-17.1-17.9c-9.5,0-17.1,8-17.1,17.9c0,8.4,5.6,15.3,13,17.3V208c0,0,0.2,27.1,21.3,27.1c21.1,0,167.4,0,167.4,0s19.5,1.7,19.5-29.3c0-22,0-95.2,0-135.9c8.4-1.2,14.8-8.6,14.8-17.6C246,42.4,238.3,34.4,228.9,34.4z"/></g></g>
</svg>